<svg width="35" height="35" viewBox="0 0 35 35" fill="none" xmlns="http://www.w3.org/2000/svg">
<path d="M30.8999 0H4.1002C1.8401 0 0 1.60997 0 3.60502V27.265C0 29.2601 1.83996 30.87 4.10006 30.87H26.7801L25.7199 27.6325L28.28 29.715L30.6999 31.675L35 35V3.60502C35 1.60997 33.16 0 30.8999 0ZM23.18 22.8551C23.18 22.8551 22.46 22.1025 21.86 21.4375C24.48 20.79 25.48 19.355 25.48 19.355C24.66 19.8276 23.88 20.1601 23.18 20.3874C22.18 20.755 21.22 20.9999 20.28 21.14C18.36 21.455 16.6 21.3675 15.1 21.1225C13.9599 20.9299 12.9799 20.65 12.16 20.3701C11.7 20.2125 11.2 20.02 10.6999 19.775C10.64 19.74 10.58 19.7225 10.52 19.6875C10.48 19.67 10.4599 19.6525 10.44 19.6351C10.08 19.4601 9.87998 19.3376 9.87998 19.3376C9.87998 19.3376 10.84 20.7376 13.38 21.4025C12.7801 22.0676 12.04 22.855 12.04 22.855C7.61988 22.7325 5.94002 20.1951 5.94002 20.1951C5.94002 14.5601 8.82 9.9925 8.82 9.9925C11.7 8.10248 14.44 8.15499 14.44 8.15499L14.64 8.36506C11.04 9.27484 9.38 10.6575 9.38 10.6575C9.38 10.6575 9.81996 10.4476 10.5599 10.15C12.6999 9.32748 14.4 9.10006 15.1 9.04755C15.2199 9.02996 15.32 9.0125 15.4401 9.0125C16.7803 8.85972 18.1367 8.848 19.4801 8.97756C21.3799 9.17005 23.4201 9.66005 25.5 10.6575C25.5 10.6575 23.92 9.34506 20.52 8.43505L20.8 8.15511C20.8 8.15511 23.54 8.10248 26.4199 9.99262C26.4199 9.99262 29.3001 14.5601 29.3001 20.1951C29.3001 20.1951 27.6 22.7325 23.18 22.855V22.8551ZM13.88 14.6826C12.74 14.6826 11.8401 15.5575 11.8401 16.625C11.8401 17.6925 12.76 18.5675 13.88 18.5675C15.0201 18.5675 15.9199 17.6925 15.9199 16.625C15.94 15.5575 15.0199 14.6826 13.88 14.6826ZM21.1801 14.6826C20.04 14.6826 19.1399 15.5575 19.1399 16.625C19.1399 17.6925 20.0601 18.5675 21.1801 18.5675C22.32 18.5675 23.2199 17.6925 23.2199 16.625C23.2199 15.5575 22.32 14.6826 21.1801 14.6826Z" fill="#7289DA"/>
</svg>
